# Blender v2.79 (sub 0) OBJ File: ''
# www.blender.org
mtllib arrow2obj.mtl
o Plane
v -1.000000 1.000017 1.021132
v 1.000000 1.000017 1.021132
v 0.000000 1.000017 0.341250
v 0.002335 1.000017 -0.978868
v -1.000000 0.750817 1.021132
v 1.000000 0.750817 1.021132
v 0.000000 0.750817 0.341250
v 0.002335 0.750817 -0.978868
vn 0.0000 -1.0000 0.0000
vn 0.0000 1.0000 -0.0000
vn 0.8940 0.0000 0.4480
vn 0.5622 0.0000 -0.8270
vn -0.8948 0.0000 0.4464
vn -0.5622 0.0000 -0.8270
usemtl None
s off
f 3//1 1//1 4//1 2//1
f 7//2 6//2 8//2 5//2
f 4//3 1//3 5//3 8//3
f 3//4 2//4 6//4 7//4
f 2//5 4//5 8//5 6//5
f 1//6 3//6 7//6 5//6
